<svg version="1.1" xmlns="http://www.w3.org/2000/svg" xmlns:xlink="http://www.w3.org/1999/xlink" width="512.000000pt" height="512.000000pt" viewBox="0,0,256,256"><g fill="#003e7e" fill-rule="nonzero" stroke="none" stroke-width="1" stroke-linecap="butt" stroke-linejoin="miter" stroke-miterlimit="10" stroke-dasharray="" stroke-dashoffset="0" font-family="none" font-weight="none" font-size="none" text-anchor="none" style="mix-blend-mode: normal"><g transform="translate(0,-0.04446) scale(0.5,0.5)"><g transform="translate(0,512) scale(0.1,-0.1)"><path d="M1022,4797c-53,-20 -103,-66 -128,-121l-24,-51v-2065v-2065l24,-51c27,-58 80,-106 135,-123c55,-16 3007,-16 3062,0c55,17 108,65 135,123l24,51v1661c0,1457 -2,1666 -15,1705c-13,38 -82,111 -453,481c-364,364 -444,440 -481,453c-38,13 -181,15 -1145,14c-821,0 -1109,-4 -1134,-12zM3212,4298c3,-349 4,-364 25,-403c24,-46 54,-75 103,-101c32,-17 66,-19 398,-22l362,-3v-1630v-1630l-25,-24l-24,-25h-1491h-1491l-24,25l-25,24v2051v2051l25,24l24,25h1070h1070zM3677,4238c167,-167 303,-306 303,-311c0,-4 -130,-7 -290,-5c-262,3 -291,5 -307,21c-16,16 -18,45 -21,307c-2,160 1,290 5,290c4,0 144,-136 310,-302z"></path><path d="M1350,3900c-25,-25 -26,-71 -1,-101l19,-24l528,-3c366,-2 537,1 555,8c26,11 49,47 49,76c0,8 -11,26 -25,39l-24,25h-541c-527,0 -540,0 -560,-20z"></path><path d="M2376,3285c-57,-19 -61,-101 -6,-130c44,-23 1336,-23 1380,0c47,24 53,102 10,125c-26,14 -1341,19 -1384,5z"></path><path d="M1350,3270c-40,-40 -16,-111 42,-125c13,-3 168,-5 345,-3c317,3 323,3 344,25c30,30 30,80 0,105c-22,17 -48,18 -367,18c-331,0 -345,-1 -364,-20z"></path><path d="M1376,2735c-57,-19 -61,-101 -6,-130c25,-13 171,-15 1190,-15c1265,0 1211,-2 1226,55c9,35 -3,73 -26,85c-27,14 -2340,19 -2384,5z"></path><path d="M1376,2185c-57,-19 -61,-101 -6,-130c44,-23 1336,-23 1380,0c47,24 53,102 10,125c-26,14 -1341,19 -1384,5z"></path><path d="M3039,2172c-30,-25 -30,-75 0,-105c21,-22 27,-22 344,-25c177,-2 332,0 345,3c58,14 82,85 42,125c-19,19 -33,20 -364,20c-319,0 -345,-1 -367,-18z"></path><path d="M1376,1635c-57,-19 -61,-101 -6,-130c25,-13 171,-15 1190,-15c1265,0 1211,-2 1226,55c9,35 -3,73 -26,85c-27,14 -2340,19 -2384,5z"></path><path d="M3039,1072c-30,-25 -30,-75 0,-105c21,-22 27,-22 344,-25c177,-2 332,0 345,3c58,14 82,85 42,125c-19,19 -33,20 -364,20c-319,0 -345,-1 -367,-18z"></path></g></g></g></svg>