<svg version="1.1" xmlns="http://www.w3.org/2000/svg" xmlns:xlink="http://www.w3.org/1999/xlink" width="256.000000pt" height="256.000000pt" viewBox="0,0,256,256"><g fill="#003e7e" fill-rule="nonzero" stroke="none" stroke-width="1" stroke-linecap="butt" stroke-linejoin="miter" stroke-miterlimit="10" stroke-dasharray="" stroke-dashoffset="0" font-family="none" font-weight="none" font-size="none" text-anchor="none" style="mix-blend-mode: normal"><g transform="translate(0,0.09112)"><g transform="translate(0,256) scale(0.1,-0.1)"><path d="M1140,2554c-208,-27 -407,-101 -580,-217c-96,-64 -273,-241 -337,-337c-95,-142 -163,-302 -199,-470c-26,-119 -26,-381 0,-500c56,-259 167,-463 355,-651c188,-188 392,-299 651,-355c119,-26 381,-26 500,0c259,56 462,167 651,355c186,185 300,394 355,651c26,119 26,381 0,500c-55,257 -169,466 -355,651c-185,185 -380,293 -631,350c-83,19 -331,33 -410,23zM1456,2385c245,-43 444,-145 614,-315c255,-255 370,-604 315,-960c-92,-610 -673,-1034 -1280,-935c-489,79 -864,464 -935,960c-47,335 74,688 320,935c255,255 621,374 966,315z"></path><path d="M960,1907c-49,-16 -133,-102 -148,-153c-28,-94 -8,-169 63,-239c101,-102 229,-102 330,0c102,101 102,229 0,330c-70,71 -152,91 -245,62zM1095,1735c16,-15 25,-36 25,-55c0,-19 -9,-40 -25,-55c-15,-16 -36,-25 -55,-25c-19,0 -40,9 -55,25c-16,15 -25,36 -25,55c0,19 9,40 25,55c15,16 36,25 55,25c19,0 40,-9 55,-25z"></path><path d="M1222,1337c-259,-259 -472,-477 -472,-482c0,-13 92,-105 105,-105c6,0 224,214 485,475l475,475l-55,55c-30,30 -57,55 -60,55c-3,0 -218,-213 -478,-473z"></path><path d="M1440,1107c-49,-16 -133,-102 -148,-153c-28,-94 -8,-169 63,-239c101,-102 229,-102 330,0c102,101 102,229 0,330c-70,71 -152,91 -245,62zM1575,935c50,-49 15,-135 -55,-135c-19,0 -40,9 -55,25c-16,15 -25,36 -25,55c0,19 9,40 25,55c15,16 36,25 55,25c19,0 40,-9 55,-25z"></path></g></g></g></svg>