<svg version="1.1" xmlns="http://www.w3.org/2000/svg" xmlns:xlink="http://www.w3.org/1999/xlink" width="200.000000pt" height="200.000000pt" viewBox="0,0,256,256"><g fill="#003e7e" fill-rule="nonzero" stroke="none" stroke-width="1" stroke-linecap="butt" stroke-linejoin="miter" stroke-miterlimit="10" stroke-dasharray="" stroke-dashoffset="0" font-family="none" font-weight="none" font-size="none" text-anchor="none" style="mix-blend-mode: normal"><g transform="translate(0.39262,-0.02661) scale(1.28,1.28)"><g transform="translate(0,200) scale(0.1,-0.1)"><path d="M284,1546c-11,-30 7,-36 107,-36c80,0 108,-4 144,-21c70,-33 135,-119 135,-178c0,-20 -7,-21 -192,-23c-164,-3 -193,-5 -193,-18c0,-13 29,-15 193,-18c185,-2 192,-3 192,-23c0,-33 -29,-92 -63,-127c-55,-58 -100,-74 -217,-81c-84,-5 -105,-9 -105,-21c0,-11 17,-16 69,-20l70,-5l130,-265c72,-145 137,-266 143,-268c34,-10 14,46 -100,281l-125,255l42,12c93,26 185,128 201,222l7,38h65c56,0 64,2 61,18c-3,13 -15,18 -64,20l-61,3l-16,58c-12,41 -29,73 -62,109l-46,51l123,3c115,3 123,4 123,23c0,19 -8,20 -278,23c-236,2 -278,0 -283,-12z"></path><path d="M1382,1548c-9,-9 -12,-135 -12,-517v-506l-133,133c-73,72 -138,132 -144,132c-38,0 -12,-36 133,-181c87,-87 163,-159 169,-159c6,0 82,72 169,159c145,145 171,181 133,181c-7,0 -71,-59 -142,-130l-130,-130l-5,512c-3,340 -8,512 -15,515c-6,2 -16,-2 -23,-9z"></path></g></g></g></svg>