<svg version="1.1" xmlns="http://www.w3.org/2000/svg" xmlns:xlink="http://www.w3.org/1999/xlink" width="1200.000000pt" height="1200.000000pt" viewBox="0,0,256,256"><g fill="#003e7e" fill-rule="nonzero" stroke="none" stroke-width="1" stroke-linecap="butt" stroke-linejoin="miter" stroke-miterlimit="10" stroke-dasharray="" stroke-dashoffset="0" font-family="none" font-weight="none" font-size="none" text-anchor="none" style="mix-blend-mode: normal"><g transform="translate(0.00585,-0.01341) scale(0.21333,0.21333)"><g transform="translate(0,1200) scale(0.1,-0.1)"><path d="M5600,11989c-654,-46 -1301,-197 -1895,-444c-1621,-674 -2874,-2031 -3413,-3697c-544,-1678 -318,-3525 613,-5014c936,-1500 2475,-2511 4210,-2768c1459,-216 2935,107 4165,912c683,446 1255,1014 1715,1702c1289,1926 1340,4458 132,6435c-677,1109 -1688,1967 -2886,2451c-596,241 -1230,383 -1901,424c-188,11 -570,11 -740,-1zM6290,10960c978,-60 1894,-394 2675,-975c371,-275 745,-649 1020,-1020c891,-1197 1195,-2719 834,-4172c-156,-628 -442,-1232 -834,-1758c-275,-370 -650,-745 -1020,-1020c-1416,-1054 -3285,-1277 -4908,-588c-797,339 -1524,911 -2042,1608c-899,1208 -1201,2753 -825,4213c277,1070 919,2033 1806,2708c263,200 494,344 804,498c395,197 778,328 1210,416c430,87 845,116 1280,90z"></path><path d="M4057,8640c-114,-170 -207,-312 -207,-315c0,-3 210,-5 468,-5c763,0 1044,-30 1330,-140c203,-78 387,-230 490,-405c28,-49 52,-95 52,-102c0,-11 -174,-13 -967,-13l-968,-1l-200,-300c-110,-166 -201,-305 -203,-310c-2,-5 501,-9 1207,-9h1211v-55c0,-75 -25,-193 -61,-286c-97,-251 -311,-475 -585,-612c-105,-53 -285,-112 -426,-141c-212,-43 -324,-50 -740,-49l-388,1v-294v-294l1196,-1495l1196,-1495h529c291,0 529,2 529,5c0,3 -554,696 -1230,1541c-677,845 -1228,1540 -1224,1545c3,5 25,9 49,9c61,0 253,26 371,50c425,87 823,277 1110,529c284,248 485,593 550,944l18,97h382h382l201,305c110,168 201,308 201,310c0,3 -264,6 -587,7l-587,3l-27,95c-59,212 -137,370 -256,518l-34,42h543l543,1l190,285c105,158 198,299 208,315l19,29h-2039h-2040z"></path></g></g></g></svg>