<svg version="1.1" xmlns="http://www.w3.org/2000/svg" xmlns:xlink="http://www.w3.org/1999/xlink" width="320.000000pt" height="256.000000pt" viewBox="0,0,256,204.79688"><g fill="#003e7e" fill-rule="nonzero" stroke="none" stroke-width="1" stroke-linecap="butt" stroke-linejoin="miter" stroke-miterlimit="10" stroke-dasharray="" stroke-dashoffset="0" font-family="none" font-weight="none" font-size="none" text-anchor="none" style="mix-blend-mode: normal"><g transform="translate(-0.7918,-3.94589) scale(0.8,0.8)"><g transform="translate(0,256) scale(0.1,-0.1)"><path d="M1079,2334c-62,-34 -96,-90 -104,-167c-3,-34 -5,-478 -3,-987c3,-881 4,-927 22,-960c26,-49 45,-69 91,-94c39,-20 52,-21 494,-24c310,-2 470,1 508,8c69,15 135,74 152,137c8,29 11,321 9,1005c-3,955 -3,963 -24,1003c-11,22 -40,54 -63,70l-43,30l-496,2l-497,3zM2110,1300v-740h-500h-500v740v740h500h500zM1670,440c30,-16 52,-49 57,-88c18,-131 -165,-186 -222,-66c-49,105 60,207 165,154z"></path></g></g></g></svg>