<svg version="1.1" xmlns="http://www.w3.org/2000/svg" xmlns:xlink="http://www.w3.org/1999/xlink" width="512.000000pt" height="512.000000pt" viewBox="0,0,256,256"><g fill="#003e7e" fill-rule="nonzero" stroke="none" stroke-width="1" stroke-linecap="butt" stroke-linejoin="miter" stroke-miterlimit="10" stroke-dasharray="" stroke-dashoffset="0" font-family="none" font-weight="none" font-size="none" text-anchor="none" style="mix-blend-mode: normal"><g transform="translate(-0.0263,0.17137) scale(0.5,0.5)"><g transform="translate(0,512) scale(0.1,-0.1)"><path d="M2583,4920c-255,-21 -490,-103 -707,-247c-133,-87 -329,-283 -406,-405c-50,-79 -57,-86 -80,-80c-43,10 -232,6 -295,-7c-176,-38 -350,-144 -462,-284c-136,-168 -192,-348 -179,-574l6,-111l-48,-39c-110,-88 -218,-223 -288,-360c-221,-433 -136,-969 212,-1333c132,-138 270,-231 431,-290c157,-57 197,-60 750,-60c564,0 541,-3 582,70c38,67 19,145 -46,187c-25,17 -68,18 -543,23c-570,7 -561,6 -709,76c-258,121 -444,367 -501,664c-6,30 -11,103 -11,161c-1,280 136,533 379,702c99,68 119,114 92,207c-6,19 -15,67 -21,106c-35,249 132,496 384,569c72,21 202,21 277,0c118,-32 182,-10 227,79c144,286 408,514 708,611c236,76 510,74 751,-5c181,-60 325,-150 465,-289c170,-171 281,-379 324,-611c40,-212 43,-216 187,-255c241,-65 419,-182 559,-367c142,-189 210,-391 210,-628c0,-261 -94,-502 -270,-691c-145,-157 -291,-246 -490,-302c-70,-19 -109,-21 -533,-26l-458,-6l-37,-38c-35,-34 -38,-42 -38,-95c0,-65 21,-102 72,-127c46,-22 848,-22 979,0c253,44 484,165 674,355c293,292 436,714 375,1110c-75,497 -419,913 -876,1060l-67,21l-12,62c-6,34 -27,109 -46,166c-161,485 -579,859 -1087,972c-72,16 -314,43 -337,37c-3,0 -46,-4 -97,-8z"></path><path d="M2510,3159c-30,-12 -805,-782 -826,-821c-8,-15 -14,-48 -14,-74c0,-40 5,-51 38,-85c44,-43 76,-54 130,-44c32,6 75,44 310,278l272,272v-1193c0,-1311 -4,-1226 61,-1272c21,-16 45,-22 80,-22c57,0 91,19 119,65c19,31 20,60 20,1227v1195l268,-267c147,-147 280,-272 295,-278c16,-5 40,-10 54,-10c36,0 97,37 116,70c21,35 22,102 3,138c-22,42 -797,810 -829,822c-34,12 -64,12 -97,-1z"></path></g></g></g></svg>